<svg xmlns="http://www.w3.org/2000/svg" viewBox="0 0 57.6 19.9"><defs><style>.cls-1{fill:#fff;}</style></defs><g id="Layer_2" data-name="Layer 2"><g id="Layer_1-2" data-name="Layer 1"><polygon class="cls-1" points="31.13 15.38 32.48 16.13 30.57 19.9 37.16 19.9 37.66 18.91 32.84 18.91 33.37 17.88 36.23 17.88 36.64 17.07 33.77 17.07 34.13 16.37 38.45 16.37 38.95 15.38 31.13 15.38"/><polygon class="cls-1" points="48.93 16.13 48.31 17.36 49.24 17.88 52.99 17.88 52.46 18.91 48.02 18.91 47.52 19.9 52.61 19.9 53.98 19.4 54.91 17.56 54.04 17.07 50.22 17.07 50.58 16.37 55.52 16.37 56.02 15.38 47.58 15.38 48.93 16.13"/><polygon class="cls-1" points="39.3 15.38 40.65 16.13 38.74 19.9 40.5 19.9 42.3 16.37 45.43 16.37 45.07 17.07 42.58 17.07 42.17 17.88 43.81 19.9 45.57 19.9 43.95 17.88 45.33 17.88 46.69 17.37 47.45 15.87 46.57 15.38 39.3 15.38"/><polygon class="cls-1" points="16.76 15.39 16.49 15.91 18.93 16.25 17.08 19.9 18.86 19.9 20.6 16.48 22.71 16.77 23.41 15.39 16.76 15.39"/><polygon class="cls-1" points="12.54 15.38 13.9 16.13 12.48 18.91 9.31 18.91 11.1 15.38 9.33 15.38 7.54 18.91 9.33 19.9 12.65 19.9 14.02 19.4 16.05 15.38 12.54 15.38"/><polygon class="cls-1" points="2.04 15.38 0 19.4 0.91 19.9 6.12 19.9 6.62 18.91 2.01 18.91 3.3 16.37 7.91 16.37 8.41 15.38 2.04 15.38"/><polygon class="cls-1" points="24.13 15.39 23.86 15.91 26.3 16.25 24.45 19.9 26.23 19.9 27.97 16.48 30.08 16.77 30.78 15.39 24.13 15.39"/><polygon class="cls-1" points="30.36 0 17.58 4.92 16.31 7.42 25.87 12.68 37.94 8.22 38.33 7.46 26 10.7 26.17 11.48 21.44 6.75 19.76 6.86 29.25 1.87 28.73 1.23 39.42 5.31 39.71 4.75 30.36 0"/><polygon class="cls-1" points="56.49 15.38 56.44 15.48 56.61 15.48 56.35 15.98 56.47 15.98 56.72 15.48 56.89 15.48 56.94 15.38 56.49 15.38"/><polygon class="cls-1" points="57.47 15.38 57.1 15.81 57.17 15.38 57.04 15.38 56.71 15.98 56.82 15.98 57.03 15.59 56.98 15.9 57.13 15.9 57.39 15.59 57.21 15.98 57.32 15.98 57.6 15.38 57.47 15.38"/></g></g></svg>