<svg xmlns="http://www.w3.org/2000/svg" viewBox="0 0 48 16.58"><defs><style>.cls-1{fill:#fff;}</style></defs><g id="Layer_2" data-name="Layer 2"><g id="Layer_1-2" data-name="Layer 1"><polygon class="cls-1" points="25.94 12.82 27.07 13.44 25.47 16.58 30.97 16.58 31.39 15.76 27.37 15.76 27.81 14.9 30.19 14.9 30.53 14.23 28.14 14.23 28.45 13.64 32.04 13.64 32.46 12.82 25.94 12.82"/><polygon class="cls-1" points="40.78 13.44 40.26 14.47 41.03 14.9 44.16 14.9 43.72 15.76 40.02 15.76 39.6 16.58 43.84 16.58 44.98 16.16 45.76 14.63 45.03 14.23 41.85 14.23 42.15 13.64 46.26 13.64 46.68 12.82 39.65 12.82 40.78 13.44"/><polygon class="cls-1" points="32.75 12.82 33.88 13.44 32.28 16.59 33.75 16.59 35.25 13.64 37.86 13.64 37.56 14.23 35.48 14.23 35.14 14.9 36.51 16.59 37.97 16.59 36.62 14.9 37.77 14.9 38.91 14.48 39.54 13.22 38.81 12.82 32.75 12.82"/><polygon class="cls-1" points="13.96 12.82 13.74 13.26 15.78 13.54 14.23 16.59 15.72 16.59 17.16 13.74 18.92 13.97 19.51 12.82 13.96 12.82"/><polygon class="cls-1" points="10.46 12.82 11.58 13.44 10.4 15.76 7.76 15.76 9.25 12.82 7.78 12.82 6.29 15.76 7.78 16.59 10.54 16.59 11.68 16.16 13.38 12.82 10.46 12.82"/><polygon class="cls-1" points="1.7 12.82 0 16.17 0.76 16.58 5.1 16.58 5.51 15.76 1.68 15.76 2.75 13.64 6.59 13.64 7.01 12.82 1.7 12.82"/><polygon class="cls-1" points="20.11 12.82 19.88 13.26 21.92 13.54 20.38 16.59 21.86 16.59 23.31 13.74 25.06 13.97 25.65 12.82 20.11 12.82"/><polygon class="cls-1" points="25.3 0 14.65 4.1 13.59 6.18 21.56 10.57 31.62 6.85 31.94 6.22 21.67 8.92 21.8 9.57 17.87 5.63 16.46 5.72 24.37 1.56 23.95 1.02 32.85 4.43 33.09 3.96 25.3 0"/><polygon class="cls-1" points="47.08 12.82 47.03 12.9 47.17 12.9 46.96 13.31 47.06 13.31 47.27 12.9 47.41 12.9 47.45 12.82 47.08 12.82"/><polygon class="cls-1" points="47.9 12.82 47.59 13.17 47.64 12.82 47.53 12.82 47.26 13.31 47.35 13.31 47.53 12.99 47.49 13.25 47.6 13.25 47.83 12.99 47.67 13.31 47.77 13.31 48 12.82 47.9 12.82"/></g></g></svg>