<svg xmlns="http://www.w3.org/2000/svg" viewBox="0 0 99.75 13.26"><defs><style>.cls-1{fill:#fff;}</style></defs><g id="Layer_2" data-name="Layer 2"><g id="Layer_1-2" data-name="Layer 1"><path class="cls-1" d="M14.85,5.13h-10V7.8h8a.8.8,0,0,1,.62.63v2h-9c-1.34,0-1.5-.54-1.5-.94V3.78c0-.4.16-.94,1.5-.94H16.24V0H4.43C1.37,0,0,1.13,0,3.67V9.59c0,2.54,1.37,3.67,4.43,3.67H16.28V6.56A1.43,1.43,0,0,0,14.85,5.13Z"/><path class="cls-1" d="M21,10.42V0H18.19V13.26H31.05a4.51,4.51,0,0,1-1.37-2.84Z"/><path class="cls-1" d="M44.3,9.48c0,.4-.16.94-1.5.94H35.73c-1.35,0-1.5-.54-1.5-.94V0H31.31V9.59c0,2.54,1.37,3.67,4.43,3.67h7c3.06,0,4.43-1.13,4.43-3.67V0H44.3Z"/><path class="cls-1" d="M82.34,3.67C82.34,1.13,81,0,77.91,0H70.49c-3.06,0-4.43,1.13-4.43,3.67V9.59c0,2.54,1.37,3.67,4.43,3.67h7.42c3.06,0,4.43-1.13,4.43-3.67ZM79.43,9.48c0,.4-.16.94-1.5.94H70.47c-1.34,0-1.5-.54-1.5-.94V3.78c0-.4.16-.94,1.5-.94h7.46c1.34,0,1.5.54,1.5.94Z"/><path class="cls-1" d="M95.32,5H87.76c-.81,0-.87-.17-.87-.43V3.17c0-.15,0-.33.85-.33H99.23V0H87.83C85.26,0,84,.89,84,2.64V4.86c0,1.95,1.32,2.94,3.91,2.94h7.47c1.34,0,1.5.54,1.5.94v.74c0,.4-.16.94-1.5.94H84.26a3.79,3.79,0,0,1-1.61,2.84H95.32c3.07,0,4.43-1.13,4.43-3.67v-1C99.75,6.09,98.39,5,95.32,5Z"/><path class="cls-1" d="M55.65,5.82,65.51,0H60.08L52.49,4.7c-.34.14-.44,0-.46-.08V0H49.19V13.26H52V7.69c0-.07.12-.21.46-.08l8.34,5.65h5.25L55.6,6.48A.4.4,0,0,1,55.65,5.82Z"/></g></g></svg>