<svg xmlns="http://www.w3.org/2000/svg" viewBox="0 0 48 6.38"><defs><style>.cls-1{fill:#fff;}</style></defs><g id="Layer_2" data-name="Layer 2"><g id="Layer_1-2" data-name="Layer 1"><path class="cls-1" d="M7.15,2.47H2.31V3.75H6.17a.41.41,0,0,1,.3.31V5H2.12c-.64,0-.72-.25-.72-.45V1.82c0-.2.08-.45.72-.45h5.7V0H2.13C.66,0,0,.55,0,1.77V4.61C0,5.84.66,6.38,2.13,6.38h5.7V3.16A.68.68,0,0,0,7.15,2.47Z"/><path class="cls-1" d="M10.12,5V0H8.75V6.38h6.19A2.2,2.2,0,0,1,14.28,5Z"/><path class="cls-1" d="M21.32,4.56c0,.2-.08.45-.73.45h-3.4c-.65,0-.72-.25-.72-.45V0h-1.4V4.61c0,1.23.66,1.77,2.13,1.77h3.39c1.47,0,2.13-.54,2.13-1.77V0h-1.4Z"/><path class="cls-1" d="M39.62,1.77C39.62.55,39,0,37.49,0H33.92c-1.47,0-2.13.55-2.13,1.77V4.61c0,1.23.66,1.77,2.13,1.77h3.57c1.47,0,2.13-.54,2.13-1.77Zm-1.4,2.79c0,.2-.07.45-.72.45H33.91c-.65,0-.72-.25-.72-.45V1.82c0-.2.07-.45.72-.45H37.5c.65,0,.72.25.72.45Z"/><path class="cls-1" d="M45.87,2.39H42.23c-.39,0-.42-.09-.42-.21V1.52c0-.07,0-.15.41-.15h5.53V0H42.26C41,0,40.4.43,40.4,1.27V2.34c0,.94.63,1.41,1.88,1.41h3.6c.64,0,.72.26.72.45v.36c0,.2-.08.45-.72.45H40.54a1.82,1.82,0,0,1-.77,1.37h6.1c1.47,0,2.13-.54,2.13-1.77V4.15C48,2.93,47.34,2.39,45.87,2.39Z"/><path class="cls-1" d="M26.78,2.8,31.52,0H28.91L25.26,2.26c-.17.07-.21,0-.22,0V0H23.67V6.38H25V3.7s.05-.1.22,0l4,2.72H31.8L26.75,3.12A.2.2,0,0,1,26.78,2.8Z"/></g></g></svg>