<svg xmlns="http://www.w3.org/2000/svg" viewBox="0 0 57.6 7.66"><defs><style>.cls-1{fill:#fff;}</style></defs><g id="Layer_2" data-name="Layer 2"><g id="Layer_1-2" data-name="Layer 1"><path class="cls-1" d="M8.58,3H2.78V4.5H7.4a.47.47,0,0,1,.36.37V6H2.55c-.78,0-.87-.31-.87-.54V2.18c0-.23.09-.54.87-.54H9.38V0H2.56C.79,0,0,.65,0,2.12V5.54C0,7,.79,7.66,2.56,7.66H9.4V3.79A.83.83,0,0,0,8.58,3Z"/><path class="cls-1" d="M12.14,6V0H10.5V7.66h7.43A2.61,2.61,0,0,1,17.14,6Z"/><path class="cls-1" d="M25.58,5.48c0,.23-.09.54-.87.54H20.63c-.78,0-.87-.31-.87-.54V0H18.08V5.54c0,1.46.79,2.12,2.56,2.12H24.7c1.77,0,2.56-.66,2.56-2.12V0H25.58Z"/><path class="cls-1" d="M47.55,2.12C47.55.65,46.76,0,45,0H40.7c-1.77,0-2.55.65-2.55,2.12V5.54c0,1.46.78,2.12,2.55,2.12H45c1.77,0,2.56-.66,2.56-2.12ZM45.87,5.48c0,.23-.09.54-.87.54H40.69c-.77,0-.86-.31-.86-.54V2.18c0-.23.09-.54.86-.54H45c.78,0,.87.31.87.54Z"/><path class="cls-1" d="M55,2.86H50.68c-.47,0-.51-.1-.51-.25V1.83c0-.09,0-.19.5-.19H57.3V0H50.72c-1.49,0-2.24.51-2.24,1.52V2.81c0,1.12.76,1.69,2.26,1.69h4.31c.78,0,.87.31.87.55v.43c0,.23-.09.54-.87.54h-6.4a2.17,2.17,0,0,1-.92,1.64H55c1.77,0,2.56-.66,2.56-2.12V5C57.6,3.52,56.81,2.86,55,2.86Z"/><path class="cls-1" d="M32.13,3.36,37.83,0H34.69L30.31,2.71c-.2.08-.25,0-.27,0V0H28.4V7.66H30V4.44s.07-.12.27,0l4.82,3.26h3L32.1,3.74A.24.24,0,0,1,32.13,3.36Z"/></g></g></svg>