<svg width="72" height="14" viewBox="0 0 72 14" fill="none" xmlns="http://www.w3.org/2000/svg">
<g clip-path="url(#clip0_3348_541)">
<path d="M70.5692 3.06857C70.0753 3.07281 69.6703 2.72293 69.667 2.28946C69.6622 1.85599 70.0592 1.50044 70.5546 1.4976C71.0485 1.49336 71.4535 1.84183 71.4568 2.27671C71.46 2.71159 71.0646 3.06573 70.5692 3.06857ZM70.5546 1.64351C70.1544 1.64634 69.8397 1.93107 69.8446 2.28946C69.8478 2.64785 70.1673 2.92691 70.5675 2.92408C70.9678 2.92124 71.2792 2.63652 71.276 2.27813C71.2728 1.91974 70.9565 1.64068 70.5563 1.64351M70.7531 2.70593L70.5514 2.37162L70.4271 2.37162L70.4304 2.70876L70.2529 2.70876L70.2448 1.86166L70.6079 1.85883C70.7903 1.85883 70.921 1.9764 70.921 2.11664C70.921 2.23563 70.8387 2.31496 70.7322 2.34754L70.9516 2.70451L70.7515 2.70451L70.7531 2.70593ZM70.5869 1.99057L70.4239 1.99057L70.4271 2.24838L70.5901 2.24838C70.6837 2.24696 70.7483 2.18888 70.7467 2.11806C70.7451 2.04723 70.6805 1.99057 70.5869 1.99057Z" fill="#CB202F"/>
<path d="M2.42479 7.01074L3.80045 5.85908L3.76174 1.89981L2.3877 3.11521L2.42479 7.01074Z" fill="#CB202F"/>
<path d="M2.46253 10.905L3.86077 12.0991L3.82207 8.14126L2.42383 7.01085L2.46253 10.905Z" fill="#CB202F"/>
<path d="M19.32 6.88487L17.9443 8.03653L17.983 11.9944L19.3571 10.779L19.32 6.88487Z" fill="#9E1D20"/>
<path d="M19.3201 6.88477L19.283 2.98924L17.8848 1.79508L17.9219 5.75294L17.9235 5.75294L19.3201 6.88477Z" fill="#9E1D20"/>
<path d="M3.76147 1.89983L0.987305 1.92108L2.38649 3.11523L3.76147 1.89983Z" fill="#F15C4C"/>
<path d="M1.08594 12.1189L3.86171 12.0991L2.46253 10.9049L1.08594 12.1189Z" fill="#650D0D"/>
<path d="M2.42361 7.01079L2.38649 3.11527L0.987304 1.92111L1.08575 12.1189L2.46234 10.9049L2.42361 7.01079Z" fill="#9E1D20"/>
<path d="M20.6589 1.77527L17.8848 1.7951L19.2839 2.98926L20.6589 1.77527Z" fill="#F15C4C"/>
<path d="M17.9824 11.9944L20.7566 11.9731L19.3574 10.779L17.9824 11.9944Z" fill="#650D0D"/>
<path d="M19.2832 2.98935L19.3203 6.88487L19.3574 10.779L20.7566 11.9731L20.6582 1.77536L19.2832 2.98935Z" fill="#CB202F"/>
<path d="M19.3206 6.88486L2.42383 7.00952L3.80042 5.85786L17.923 5.75304L19.3206 6.88486Z" fill="#F15C4C"/>
<path d="M19.3206 6.88487L17.944 8.03512L3.82301 8.14136L2.42383 7.00953L19.3206 6.88487Z" fill="#650D0D"/>
<path d="M42.4672 1.61231L41.1939 2.76255L25.5527 2.88013L24.2568 1.7483L42.4672 1.61231Z" fill="#F15C4C"/>
<path d="M25.5519 2.88023L24.2794 4.02905L24.2568 1.7484L25.5519 2.88023Z" fill="#9E1D20"/>
<path d="M42.4658 1.61246L42.4884 3.89453L41.1934 2.7627L42.4658 1.61246Z" fill="#CB202F"/>
<path d="M42.4897 3.89448L24.2793 4.02905L25.5526 2.88022L41.1938 2.76265L42.4897 3.89448Z" fill="#650D0D"/>
<path d="M42.5053 5.59302L41.232 6.74468L25.5908 6.86084L24.2949 5.72901L42.5053 5.59302Z" fill="#F15C4C"/>
<path d="M25.5899 6.86074L24.3159 8.01099L24.2949 5.72891L25.5899 6.86074Z" fill="#9E1D20"/>
<path d="M42.5049 5.59293L42.5274 7.875L41.2324 6.74459L42.5049 5.59293Z" fill="#CB202F"/>
<path d="M42.5284 7.875L24.3164 8.01099L25.5913 6.86074L41.2325 6.74458L42.5284 7.875Z" fill="#650D0D"/>
<path d="M42.545 9.54639L41.2701 10.6966L25.6305 10.8142L24.333 9.68238L42.545 9.54639Z" fill="#F15C4C"/>
<path d="M25.6296 10.8143L24.3556 11.9631L24.333 9.68248L25.6296 10.8143Z" fill="#9E1D20"/>
<path d="M42.5446 9.54654L42.5671 11.8286L41.2705 10.6968L42.5446 9.54654Z" fill="#CB202F"/>
<path d="M42.5675 11.8286L24.3555 11.9631L25.6304 10.8143L41.27 10.6967L42.5675 11.8286Z" fill="#650D0D"/>
<path d="M56.2479 6.62012L56.235 5.14123L49.5618 1.56443L49.3311 2.76992L56.2479 6.62012Z" fill="#F15C4C"/>
<path d="M49.5622 1.56429L44.8369 1.59828L49.3314 2.76978L49.5622 1.56429Z" fill="#F15C4C"/>
<path d="M56.2483 6.61996L49.3314 2.76976L44.8369 1.59827L53.9227 6.63696L56.2483 6.61996Z" fill="#650D0D"/>
<path d="M62.8375 1.46527L56.2354 5.14123L56.2483 6.62012L63.0909 2.66651L62.8375 1.46527Z" fill="#CB202F"/>
<path d="M67.5632 1.42985L62.8379 1.46526L63.0913 2.6665L67.5632 1.42985Z" fill="#F15C4C"/>
<path d="M67.5626 1.42985L63.0907 2.66651L56.248 6.62012L58.5736 6.60312L67.5626 1.42985Z" fill="#9E1D20"/>
<path d="M56.2482 6.62005L56.2627 8.09894L49.6606 11.7749L49.4072 10.5722L56.2482 6.62005Z" fill="#9E1D20"/>
<path d="M49.6598 11.7749L44.9346 11.8103L49.4065 10.5722L49.6598 11.7749Z" fill="#650D0D"/>
<path d="M56.2475 6.62004L49.4065 10.5722L44.9346 11.8103L53.922 6.63704L56.2475 6.62004Z" fill="#CB202F"/>
<path d="M62.9357 11.6758L56.2626 8.09898L56.248 6.62009L63.1649 10.4703L62.9357 11.6758Z" fill="#650D0D"/>
<path d="M67.6608 11.6404L62.9355 11.6758L63.1647 10.4703L67.6608 11.6404Z" fill="#650D0D"/>
<path d="M67.661 11.6404L63.1649 10.4703L56.248 6.62011L58.5736 6.60311L67.661 11.6404Z" fill="#CB202F"/>
</g>
<defs>
<clipPath id="clip0_3348_541">
<rect width="72" height="14" fill="white"/>
</clipPath>
</defs>
</svg>
