<svg xmlns="http://www.w3.org/2000/svg" viewBox="0 0 50.46 19.64"><defs><style>.cls-1{fill:#fff;}</style></defs><g id="Layer_2" data-name="Layer 2"><g id="Layer_1-2" data-name="Layer 1"><path class="cls-1" d="M42.41,6.53l-5-5C36.16.21,36.53.21,36.53.21L29.45,0a6.83,6.83,0,0,1-1.86,4.11h0a39.3,39.3,0,0,1-3.19,3,38.6,38.6,0,0,1-3.2-3h0A6.76,6.76,0,0,1,19.34,0h0L12.26.21s.37,0-.9,1.28l-5,5s5.64,5.54,5.73,5.64-.34.42-.34.42l8.83.24a11.17,11.17,0,0,1-3.72-2A25.07,25.07,0,0,1,13,6.56c0-.81,3.18-3.06,3.19-3.07s-.35.44,1.48,2.65,6.75,7,6.75,7,4.89-4.78,6.74-7,1.49-2.64,1.48-2.65,3.19,2.26,3.19,3.07a25.07,25.07,0,0,1-3.9,4.31,11.17,11.17,0,0,1-3.72,2L37,12.59s-.44-.33-.34-.42,5.73-5.64,5.73-5.64"/><path class="cls-1" d="M0,16.23v3.41l.83,0V17.09l2.71.06v2.34l.87,0v-2.3l2.1,0,.53.41v1.75l.84,0V17.42c-.37-.3-.72-.6-1.08-.92-2.27-.07-4.54-.17-6.8-.27"/><path class="cls-1" d="M34.86,18.63c-.89-.66-1.78-1.28-2.67-1.88H31c1.13.77,2.26,1.56,3.39,2.41l.89,0c1.15-.81,2.3-1.66,3.45-2.59l-1.24,0c-.89.7-1.78,1.36-2.66,2"/><path class="cls-1" d="M27.89,16.79l-3.45,2.28h1.24l.66-.44,4,0,.66.46,1.16,0c-1.13-.81-2.26-1.59-3.39-2.35h-.89M27,18.19l1.34-.89,1.34.89H27"/><path class="cls-1" d="M39.69,19.3l.83,0V16.55l-.83,0Z"/><path class="cls-1" d="M17.28,16.75v2.37c1.91,0,3.81-.05,5.72-.05l1.08-.71v-.84L23,16.8c-1.91,0-3.81,0-5.72-.05m5.43,1.77H18V17.34l4.67,0,.64.37v.41l-.64.38"/><path class="cls-1" d="M47.68,16.28c-1.91.08-3.81.16-5.72.22v2.87c1.91.06,3.81.14,5.72.23.36-.34.76-.68,1.12-1V17.31c-.36-.36-.76-.7-1.12-1m-.29,2.5-4.67-.1V17.2l4.67-.1.64.54v.6l-.64.54"/><path class="cls-1" d="M9.08,17.43v1l1.08.83c1.91-.06,3.82-.1,5.72-.13v-.59l-5.43.06-.64-.43V17.7l.64-.43,5.43.06v-.6l-5.72-.12-1.08.82"/><path class="cls-1" d="M50,17.18a.49.49,0,1,1,.49-.48.49.49,0,0,1-.49.48m0-.89a.4.4,0,0,0-.39.41.39.39,0,1,0,.78,0,.4.4,0,0,0-.39-.41m.1.67L50,16.75H49.9V17h-.1v-.53H50a.16.16,0,0,1,.17.16.16.16,0,0,1-.11.15l.12.22ZM50,16.51H49.9v.16H50c.06,0,.09,0,.09-.08a.08.08,0,0,0-.09-.08"/></g></g></svg>