<svg xmlns="http://www.w3.org/2000/svg" viewBox="0 0 139.91 13.03"><defs><style>.cls-1{fill:#fff;}</style></defs><g id="Layer_2" data-name="Layer 2"><g id="Layer_1-2" data-name="Layer 1"><path class="cls-1" d="M35.65,6.46s-3.67-3.72-4.93-5S29.84.21,29.84.21l-7-.21h0A6.72,6.72,0,0,1,21,4.06h0a36.77,36.77,0,0,1-3.16,3,36.77,36.77,0,0,1-3.16-3h0A6.72,6.72,0,0,1,12.82,0h0l-7,.21s.36,0-.89,1.27L0,6.46,5.67,12c.1.09-.34.42-.34.42l8.74.24a11.15,11.15,0,0,1-3.68-1.94A25.49,25.49,0,0,1,6.53,6.5c0-.81,3.14-3,3.16-3s-.35.44,1.46,2.63,6.68,7,6.68,7h0s4.84-4.74,6.67-6.95S26,3.46,26,3.45s3.15,2.24,3.15,3.05a25.49,25.49,0,0,1-3.86,4.26,11.14,11.14,0,0,1-3.67,1.94l8.73-.24s-.43-.33-.34-.42Z"/><path class="cls-1" d="M42.88,3.24V9.81l1.6-.07V4.9L49.69,5v4.5l1.67-.06V5l4,.08,1,.78V9.27L58,9.21V5.52c-.69-.57-1.39-1.15-2.08-1.75Q49.42,3.55,42.88,3.24Z"/><path class="cls-1" d="M109.9,7.85c-1.71-1.25-3.42-2.45-5.13-3.62l-2.23,0c2.17,1.48,4.35,3,6.52,4.64l1.72,0c2.21-1.56,4.41-3.2,6.62-5L115,4C113.31,5.37,111.61,6.64,109.9,7.85Z"/><path class="cls-1" d="M96.5,4.32c-2.21,1.49-4.41,2.93-6.62,4.39h2.38l1.27-.84,7.7,0,1.28.89,2.23,0c-2.17-1.56-4.35-3.05-6.52-4.51ZM94.81,7,97.38,5.3,100,7Z"/><path class="cls-1" d="M119.2,9.14l1.6,0V3.86l-1.6.05Z"/><path class="cls-1" d="M76.1,4.25V8.8c3.66-.05,7.33-.08,11-.09l2.08-1.38V5.72L87.09,4.34C83.43,4.33,79.76,4.3,76.1,4.25ZM86.54,7.64l-9,0V5.38l9,0,1.23.72v.78Z"/><path class="cls-1" d="M134.55,3.34c-3.66.16-7.32.31-11,.43V9.28c3.67.13,7.33.27,11,.44.7-.64,1.48-1.3,2.17-2V5.31C136,4.63,135.25,4,134.55,3.34ZM134,8.14c-3-.07-6-.13-9-.18V5.1c3,0,6-.11,9-.18l1.23,1V7.1Z"/><path class="cls-1" d="M60.34,5.56V7.49C61,8,61.73,8.57,62.42,9.08c3.66-.1,7.33-.18,11-.24V7.71L63,7.82c-.41-.27-.82-.55-1.22-.84V6.07L63,5.24l10.44.11V4.21c-3.66-.06-7.33-.14-11-.24C61.73,4.49,61,5,60.34,5.56Z"/><path class="cls-1" d="M139,5.07a.94.94,0,1,1,.94-.94A.94.94,0,0,1,139,5.07Zm0-1.71a.75.75,0,0,0-.75.77.75.75,0,1,0,1.5,0A.75.75,0,0,0,139,3.36Zm.2,1.27-.21-.4h-.13v.4h-.19v-1H139a.31.31,0,0,1,.33.31.29.29,0,0,1-.2.28l.23.42ZM139,3.78h-.17v.3H139a.15.15,0,1,0,0-.3Z"/></g></g></svg>