<?xml version="1.0" encoding="utf-8"?>
<!-- Generator: Adobe Illustrator 23.0.2, SVG Export Plug-In . SVG Version: 6.00 Build 0)  -->
<svg version="1.1" id="Capa_1" xmlns="http://www.w3.org/2000/svg" xmlns:xlink="http://www.w3.org/1999/xlink" x="0px" y="0px"
	 viewBox="0 0 600 617" style="enable-background:new 0 0 600 617;" xml:space="preserve">
<style type="text/css">
	.st0{fill:#FFFFFF;stroke:#FFFFFF;stroke-width:15;stroke-miterlimit:10;}
</style>
<g>
	<g>
		<path class="st0" d="M388.5,373.5c49.2-29.9,81.3-83.4,81.3-145.4c0-94.1-77-171.1-171.1-171.1s-171.1,77-171.1,171.1
			c0,62,32.1,115.5,81.3,145.4C123.3,405.6,59.1,480.5,42,570.3h42.8c21.4-98.4,109.1-171.1,213.9-171.1s192.5,72.7,213.9,171.1
			h42.8C538.2,478.4,474,403.5,388.5,373.5z M170.3,228.1c0-70.6,57.7-128.3,128.3-128.3S427,157.5,427,228.1
			s-57.7,128.3-128.3,128.3S170.3,298.7,170.3,228.1z"/>
	</g>
</g>
</svg>
