<?xml version="1.0" encoding="utf-8"?>
<!-- Generator: Adobe Illustrator 23.0.2, SVG Export Plug-In . SVG Version: 6.00 Build 0)  -->
<svg version="1.1" xmlns="http://www.w3.org/2000/svg" xmlns:xlink="http://www.w3.org/1999/xlink" x="0px" y="0px"
	 viewBox="0 0 92.38 72" style="enable-background:new 0 0 92.38 72;" xml:space="preserve">
<style type="text/css">
	.st0{fill:#53565A;}
</style>
<g id="bg">
</g>
<g id="logo">
	<g>
		<g>
			<g>
				<path class="st0" d="M0,61.68h4.91l5.95,7.51h0.03v-7.51h3.16V72h-4.9L3.2,64.5H3.17V72H0V61.68z"/>
				<path class="st0" d="M20.24,61.68h4.12L30.04,72h-3.53l-0.98-1.82h-6.42L18.19,72h-3.54L20.24,61.68z M20.3,67.95h4.05
					l-2.06-3.88L20.3,67.95z"/>
				<path class="st0" d="M28.82,61.68h12.07v2.57h-4.45V72h-3.17v-7.76h-4.45V61.68z"/>
				<path class="st0" d="M42.28,61.68h3.17v3.68h6.67v-3.68h3.17V72h-3.17V68.1h-6.67V72h-3.17V61.68z"/>
				<path class="st0" d="M61.47,61.68h4.12L71.27,72h-3.52l-0.99-1.82h-6.42L59.42,72h-3.54L61.47,61.68z M61.53,67.95h4.05
					l-2.06-3.88L61.53,67.95z"/>
				<path class="st0" d="M71.87,61.68h4.91l5.95,7.51h0.03v-7.51h3.17V72h-4.91l-5.95-7.5h-0.03V72h-3.17V61.68z"/>
			</g>
			<path class="st0" d="M74.35,0H42.96H11.57C5.2,0,0,5.2,0,11.57v42.36l17.23-16.74l8.05,8.05l-5.21,5.21h17.96l0.01-17.96
				l-5.21,5.2l-8.05-8.04l18.17-18.17l0.01,0.01l0.01-0.01l18.17,18.17l-8.05,8.04l-5.21-5.2l0.01,17.96h17.96l-5.21-5.21l8.05-8.05
				l17.23,16.74V11.57C85.92,5.2,80.72,0,74.35,0z"/>
		</g>
		<g>
			<path class="st0" d="M87.91,61.99h-0.79v-0.33h1.99v0.33h-0.79v2.19h-0.4V61.99z M89.62,61.66h0.64l0.75,1.91l0.74-1.91h0.63
				v2.52h-0.4v-2.12h-0.01l-0.83,2.12h-0.27l-0.83-2.12h-0.01v2.12h-0.4V61.66z"/>
		</g>
	</g>
</g>
</svg>
