<svg xmlns="http://www.w3.org/2000/svg" viewBox="0 0 57.6 6.55"><defs><style>.cls-1{fill:#fff;}</style></defs><g id="Layer_2" data-name="Layer 2"><g id="Layer_1-2" data-name="Layer 1"><path class="cls-1" d="M0,0H3.11L6.89,4.76h0V0h2V6.55H5.8L2,1.79H2V6.55H0Z"/><path class="cls-1" d="M13.31,0h2.61l3.6,6.55H17.29l-.62-1.16H12.59L12,6.55H9.76Zm0,4h2.57l-1.3-2.46Z"/><path class="cls-1" d="M26.69,0h2V2.34h4.24V0h2V6.55h-2V4.07H28.7V6.55h-2Z"/><path class="cls-1" d="M39.37,0H42l3.6,6.55H43.35l-.63-1.16H38.65l-.59,1.16H35.82Zm0,4H42l-1.3-2.46Z"/><path class="cls-1" d="M46.45,0h3.12l3.77,4.76h0V0h2V6.55H52.25L48.48,1.79h0V6.55h-2Z"/><path class="cls-1" d="M18.18,0h7.66V1.63H23V6.55H21V1.63H18.18Z"/><path class="cls-1" d="M57.37,1.32a.76.76,0,0,1-1.09,0,.75.75,0,0,1-.23-.55.74.74,0,0,1,.23-.54.76.76,0,0,1,1.09,0,.74.74,0,0,1,.23.54A.75.75,0,0,1,57.37,1.32Zm-1-1a.64.64,0,0,0-.19.47.65.65,0,0,0,.19.48.66.66,0,0,0,.95,0,.65.65,0,0,0,.19-.48A.64.64,0,0,0,57.3.3a.65.65,0,0,0-.48-.19A.64.64,0,0,0,56.35.3Zm.46,0a.67.67,0,0,1,.23,0,.19.19,0,0,1,.13.21.18.18,0,0,1-.08.17A.34.34,0,0,1,57,.8a.22.22,0,0,1,.14.08.27.27,0,0,1,0,.14v.12a.43.43,0,0,0,0,.05H57v-.1A.21.21,0,0,0,57,.89a.37.37,0,0,0-.17,0h-.12V1.2h-.15V.35ZM57,.48a.42.42,0,0,0-.18,0h-.13V.76h.14l.14,0A.14.14,0,0,0,57,.6.12.12,0,0,0,57,.48Z"/></g></g></svg>