<svg xmlns="http://www.w3.org/2000/svg" viewBox="0 0 99.75 11.35"><defs><style>.cls-1{fill:#fff;}</style></defs><g id="Layer_2" data-name="Layer 2"><g id="Layer_1-2" data-name="Layer 1"><path class="cls-1" d="M0,0H5.39l6.54,8.25h0V0h3.48V11.35H10.05L3.51,3.1h0v8.25H0Z"/><path class="cls-1" d="M23.05,0h4.53l6.23,11.35H29.94l-1.08-2h-7l-1,2H16.9Zm.06,6.9h4.45L25.3,2.63Z"/><path class="cls-1" d="M46.23,0h3.48V4.05H57V0h3.48V11.35H57V7.05H49.71v4.3H46.23Z"/><path class="cls-1" d="M68.17,0H72.7l6.24,11.35H75.07L74,9.34H66.93l-1,2H62Zm.06,6.9h4.46L70.43,2.63Z"/><path class="cls-1" d="M80.45,0h5.39l6.53,8.25h0V0h3.47V11.35H90.49L84,3.1h0v8.25H80.45Z"/><path class="cls-1" d="M31.49,0H44.75V2.82H39.86v8.53H36.38V2.82H31.49Z"/><path class="cls-1" d="M99.36,2.29a1.33,1.33,0,0,1-1.9,0,1.3,1.3,0,0,1-.39-.95,1.3,1.3,0,0,1,.39-.95,1.35,1.35,0,0,1,1.9,0,1.3,1.3,0,0,1,.39,1A1.3,1.3,0,0,1,99.36,2.29ZM97.59.52a1.14,1.14,0,0,0-.33.82,1.12,1.12,0,0,0,.33.82,1.09,1.09,0,0,0,.82.34,1.07,1.07,0,0,0,.81-.34,1.09,1.09,0,0,0,.34-.82,1.11,1.11,0,0,0-.34-.82,1.11,1.11,0,0,0-.81-.34A1.15,1.15,0,0,0,97.59.52Zm.79.08a1.21,1.21,0,0,1,.4.05A.35.35,0,0,1,99,1a.35.35,0,0,1-.14.3.73.73,0,0,1-.21.07.32.32,0,0,1,.25.14.43.43,0,0,1,.08.23V2s0,.06,0,.07v0h-.24V1.88a.37.37,0,0,0-.14-.34.62.62,0,0,0-.29-.05h-.2v.58h-.26V.6Zm.28.23a.62.62,0,0,0-.31,0h-.22v.53h.23a.81.81,0,0,0,.25,0,.23.23,0,0,0,.15-.23A.23.23,0,0,0,98.66.83Z"/></g></g></svg>