<svg xmlns="http://www.w3.org/2000/svg" viewBox="0 0 108.74 18"><defs><style>.cls-1{fill:#fff;}</style></defs><g id="Layer_2" data-name="Layer 2"><g id="Layer_1-2" data-name="Layer 1"><g id="Shock_Logo-HorizontalLockUp_ORG"><path class="cls-1" d="M26.7.75,42.78,6.39a2.76,2.76,0,0,1,0,5.22L26.7,17.25a13.16,13.16,0,0,1-8.76,0L1.85,11.61a2.76,2.76,0,0,1,0-5.21L18,.75a13.14,13.14,0,0,1,8.75,0M38.8,8.81H28.92a.25.25,0,0,1-.25-.25V5a.24.24,0,0,0-.3-.24L17.78,7.39a.24.24,0,0,1-.3-.24V5a.24.24,0,0,0-.32-.23l-11.4,4a.22.22,0,0,0,.07.42h9.89a.25.25,0,0,1,.24.25V13a.25.25,0,0,0,.31.24l10.58-2.63a.25.25,0,0,1,.31.24V13a.24.24,0,0,0,.32.23l11.39-4a.22.22,0,0,0-.07-.42"/><path class="cls-1" d="M85.77,12.54H96.22a.24.24,0,0,0,.24-.24V10.74a.24.24,0,0,0-.24-.24H88.06a.09.09,0,0,1-.09-.08V5.16a.09.09,0,0,1,.09-.08h8.16a.24.24,0,0,0,.24-.24V3.29a.24.24,0,0,0-.24-.24H85.78a.23.23,0,0,0-.24.24v9a.23.23,0,0,0,.23.24"/><path class="cls-1" d="M75.65,10.42V5.16a.08.08,0,0,1,.08-.08h5.88a.09.09,0,0,1,.08.08v5.26a.09.09,0,0,1-.08.08H75.73a.08.08,0,0,1-.08-.08m-2.2,2.12H83.89a.24.24,0,0,0,.24-.24v-9a.24.24,0,0,0-.24-.24H73.45a.24.24,0,0,0-.24.24v9a.24.24,0,0,0,.24.24"/><path class="cls-1" d="M69.27,6.75H63.41a.09.09,0,0,1-.09-.09V3.28a.23.23,0,0,0-.24-.23h-2a.23.23,0,0,0-.24.23v9a.24.24,0,0,0,.24.24h2a.24.24,0,0,0,.24-.24V8.87a.09.09,0,0,1,.09-.09h5.86a.09.09,0,0,1,.09.09V12.3a.24.24,0,0,0,.24.24h2a.23.23,0,0,0,.23-.24v-9a.23.23,0,0,0-.23-.23h-2a.23.23,0,0,0-.24.23V6.66a.09.09,0,0,1-.09.09"/><path class="cls-1" d="M59.48,4.84V3.29a.24.24,0,0,0-.24-.24H49.11a.56.56,0,0,0-.55.56V8.22a.55.55,0,0,0,.55.56H57a.09.09,0,0,1,.08.08v1.56a.09.09,0,0,1-.08.08H48.79a.23.23,0,0,0-.23.24V12.3a.23.23,0,0,0,.23.24H58.92a.56.56,0,0,0,.56-.56V7.31a.56.56,0,0,0-.56-.56H51.08A.09.09,0,0,1,51,6.67V5.16a.09.09,0,0,1,.09-.08h8.16a.24.24,0,0,0,.24-.24"/><path class="cls-1" d="M100.34,9.39l5.34-6.26a.27.27,0,0,1,.19-.08h2.75a.12.12,0,0,1,.09.2l-3.79,4.39a.23.23,0,0,0,0,.31l3.79,4.38a.13.13,0,0,1-.09.21h-2.76a.21.21,0,0,1-.17-.08L103.4,9.91a.24.24,0,0,0-.36,0L101,12.45a.23.23,0,0,1-.19.09H98a.24.24,0,0,1-.24-.24v-9A.24.24,0,0,1,98,3.05h2a.24.24,0,0,1,.24.24v6a.09.09,0,0,0,.15.06"/><path class="cls-1" d="M95.78,17.09h0a.66.66,0,0,0,.66-.66v-2.1a.67.67,0,0,0-.67-.67H91.89a.24.24,0,0,0-.24.24v3.73a.24.24,0,0,0,.24.24h.78a.24.24,0,0,0,.24-.24v-.54H94a.21.21,0,0,1,.18.09l.48.6a.25.25,0,0,0,.19.09h1.2a.08.08,0,0,0,.07-.13l-.41-.52a.08.08,0,0,1,.06-.13m-.84-1.16H93a.08.08,0,0,1-.08-.08v-1a.08.08,0,0,1,.08-.08h2a.23.23,0,0,1,.24.23v.67a.24.24,0,0,1-.24.24"/><path class="cls-1" d="M90.08,13.66H85.76a.24.24,0,0,0-.24.24v3.73a.24.24,0,0,0,.24.24h4.32a.24.24,0,0,0,.24-.24V13.9a.24.24,0,0,0-.24-.24m-3.3,3V14.89a.09.09,0,0,1,.09-.1H89a.09.09,0,0,1,.1.1v1.75a.09.09,0,0,1-.1.1H86.87a.09.09,0,0,1-.09-.1"/><path class="cls-1" d="M71.54,13.66H67.22a.24.24,0,0,0-.24.24v3.73a.24.24,0,0,0,.24.24h4.32a.24.24,0,0,0,.24-.24V13.9a.24.24,0,0,0-.24-.24m-3.3,3V14.88a.09.09,0,0,1,.09-.09h2.1a.09.09,0,0,1,.09.09v1.77a.09.09,0,0,1-.09.09h-2.1a.09.09,0,0,1-.09-.09"/><path class="cls-1" d="M77.76,13.66H73.43a.24.24,0,0,0-.24.24v3.73a.24.24,0,0,0,.24.24h4.33a.24.24,0,0,0,.24-.24V17a.24.24,0,0,0-.24-.24H74.54a.09.09,0,0,1-.09-.08V14.88a.09.09,0,0,1,.09-.09h3.22a.24.24,0,0,0,.24-.24V13.9a.24.24,0,0,0-.24-.24"/><path class="cls-1" d="M83.87,13.66H79.54a.24.24,0,0,0-.24.24v.65a.24.24,0,0,0,.24.24H81a.08.08,0,0,1,.08.09v2.75a.24.24,0,0,0,.24.24h.79a.24.24,0,0,0,.24-.24V14.88a.08.08,0,0,1,.08-.09h1.45a.24.24,0,0,0,.24-.24V13.9a.24.24,0,0,0-.24-.24"/><path class="cls-1" d="M65,13.66H61.09a.24.24,0,0,0-.23.23v.67a.23.23,0,0,0,.23.23h.07a.09.09,0,0,1,.08.08v1.79a.09.09,0,0,1-.08.08h-.07a.23.23,0,0,0-.23.23v.67a.23.23,0,0,0,.23.23h3.84a.74.74,0,0,0,.74-.74v-2.8a.67.67,0,0,0-.67-.67m-.59,1.26v1.69a.13.13,0,0,1-.13.13h-1.7a.09.09,0,0,1-.08-.08V14.87a.09.09,0,0,1,.08-.08h1.7a.13.13,0,0,1,.13.13"/><path class="cls-1" d="M98.14,13.8a0,0,0,0,0,0,0v.48a0,0,0,0,1,0,0H98a0,0,0,0,1,0,0v-.48a0,0,0,0,0,0,0h-.11a0,0,0,0,1,0,0V13.7a0,0,0,0,1,0,0h.46a0,0,0,0,1,0,0v.06a0,0,0,0,1,0,0Z"/><path class="cls-1" d="M98.54,14s0,0,0,0v.31a0,0,0,0,1,0,0H98.4a0,0,0,0,1,0,0l0-.63a0,0,0,0,1,0,0h.08a.08.08,0,0,1,.06,0l.14.37s0,0,0,0l.14-.37a.07.07,0,0,1,.05,0H99a0,0,0,0,1,0,0l0,.63a0,0,0,0,1,0,0H99a0,0,0,0,1,0,0V14s0,0,0,0l-.09.22a.08.08,0,0,1-.06,0h-.06a.08.08,0,0,1-.06,0Z"/></g></g></g></svg>