<svg xmlns="http://www.w3.org/2000/svg" viewBox="0 0 33.42 24"><defs><style>.cls-1{fill:#fff;}</style></defs><g id="Layer_2" data-name="Layer 2"><g id="Layer_1-2" data-name="Layer 1"><g id="Shock_Logo-VerticalLockUp_ORG"><path class="cls-1" d="M13.44.56A9.82,9.82,0,0,1,20,.56L32,4.78a2.07,2.07,0,0,1,0,3.91L20,12.91a9.94,9.94,0,0,1-6.55,0L1.4,8.68a2.06,2.06,0,0,1,0-3.89l12-4.23m15.6,6H21.65a.18.18,0,0,1-.18-.18V3.74a.18.18,0,0,0-.23-.18l-7.92,2a.19.19,0,0,1-.23-.18V3.76a.18.18,0,0,0-.24-.17l-8.53,3a.17.17,0,0,0,.06.32h7.4a.18.18,0,0,1,.18.18V9.73a.18.18,0,0,0,.22.18l7.93-2a.18.18,0,0,1,.22.18V9.71a.18.18,0,0,0,.24.17l8.53-3A.16.16,0,0,0,29,6.59"/><path class="cls-1" d="M20.67,21h5.8a.13.13,0,0,0,.13-.13V20a.13.13,0,0,0-.13-.13H21.93a0,0,0,0,1,0-.05V16.94a0,0,0,0,1,0,0h4.54a.13.13,0,0,0,.13-.14V15.9a.13.13,0,0,0-.13-.13h-5.8a.13.13,0,0,0-.14.13v5a.13.13,0,0,0,.14.13"/><path class="cls-1" d="M15,19.86V16.94a0,0,0,0,1,.05,0h3.26a0,0,0,0,1,0,0v2.92a0,0,0,0,1,0,.05H15.09a0,0,0,0,1-.05-.05M13.82,21h5.8a.13.13,0,0,0,.13-.13v-5a.13.13,0,0,0-.13-.13h-5.8a.13.13,0,0,0-.13.13v5a.13.13,0,0,0,.13.13"/><path class="cls-1" d="M11.5,17.82H8.25a0,0,0,0,1-.05-.05V15.9a.13.13,0,0,0-.13-.13H7a.13.13,0,0,0-.14.13v5A.13.13,0,0,0,7,21H8.07a.13.13,0,0,0,.13-.13V19A.05.05,0,0,1,8.25,19H11.5a.06.06,0,0,1,.06.05v1.91a.13.13,0,0,0,.13.13h1.09a.13.13,0,0,0,.13-.13v-5a.13.13,0,0,0-.13-.13H11.69a.13.13,0,0,0-.13.13v1.87a.06.06,0,0,1-.06.05"/><path class="cls-1" d="M6.07,16.76V15.9a.13.13,0,0,0-.14-.13H.31a.31.31,0,0,0-.31.31v2.56A.31.31,0,0,0,.31,19H4.67a0,0,0,0,1,0,.05v.86a0,0,0,0,1,0,.05H.13A.13.13,0,0,0,0,20v.87A.13.13,0,0,0,.13,21H5.75a.31.31,0,0,0,.32-.31v-2.6a.31.31,0,0,0-.32-.31H1.4a0,0,0,0,1,0,0v-.84a0,0,0,0,1,0,0H5.93a.14.14,0,0,0,.14-.14"/><path class="cls-1" d="M28.76,19.29l3-3.48a.14.14,0,0,1,.1,0h1.53a.07.07,0,0,1,0,.11l-2.1,2.44a.12.12,0,0,0,0,.17l2.1,2.43a.07.07,0,0,1,0,.12H31.82a.14.14,0,0,1-.1-.05l-1.27-1.41a.13.13,0,0,0-.2,0L29.1,21A.14.14,0,0,1,29,21H27.45a.13.13,0,0,1-.13-.13v-5a.13.13,0,0,1,.13-.13h1.09a.13.13,0,0,1,.13.13v3.36a.05.05,0,0,0,.09,0"/><path class="cls-1" d="M26.22,23.57h0a.38.38,0,0,0,.37-.37V22a.38.38,0,0,0-.37-.38H24.06a.13.13,0,0,0-.13.14v2.07a.13.13,0,0,0,.13.13h.44a.13.13,0,0,0,.13-.13v-.3h.61a.1.1,0,0,1,.1.05l.27.33a.12.12,0,0,0,.1.05h.67a0,0,0,0,0,0-.07l-.23-.29a0,0,0,0,1,0-.07m-.46-.65H24.68a0,0,0,0,1-.05,0v-.55a0,0,0,0,1,0,0h1.09a.13.13,0,0,1,.13.13v.37a.13.13,0,0,1-.13.13"/><path class="cls-1" d="M23.06,21.66h-2.4a.14.14,0,0,0-.14.14v2.07a.13.13,0,0,0,.14.13h2.4a.13.13,0,0,0,.13-.13V21.8a.13.13,0,0,0-.13-.14m-1.84,1.66v-1a.06.06,0,0,1,.06-.05h1.16a0,0,0,0,1,0,.05v1a0,0,0,0,1,0,.05H21.28a.06.06,0,0,1-.06-.05"/><path class="cls-1" d="M12.77,21.66H10.36a.13.13,0,0,0-.13.14v2.07a.13.13,0,0,0,.13.13h2.41a.13.13,0,0,0,.13-.13V21.8a.13.13,0,0,0-.13-.14m-1.84,1.66v-1a0,0,0,0,1,.05-.05h1.17a0,0,0,0,1,0,.05v1a0,0,0,0,1,0,.05H11a0,0,0,0,1-.05-.05"/><path class="cls-1" d="M16.22,21.66H13.81a.13.13,0,0,0-.13.14v2.07a.13.13,0,0,0,.13.13h2.41a.13.13,0,0,0,.13-.13V23.5a.13.13,0,0,0-.13-.13H14.43a0,0,0,0,1,0-.05v-1a0,0,0,0,1,0-.05h1.79a.13.13,0,0,0,.13-.13V21.8a.13.13,0,0,0-.13-.14"/><path class="cls-1" d="M19.61,21.66h-2.4a.14.14,0,0,0-.14.14v.36a.13.13,0,0,0,.14.13H18a0,0,0,0,1,0,.05v1.53a.13.13,0,0,0,.13.13h.44a.13.13,0,0,0,.13-.13V22.34a0,0,0,0,1,0-.05h.8a.13.13,0,0,0,.13-.13V21.8a.13.13,0,0,0-.13-.14"/><path class="cls-1" d="M9.13,21.66H7a.13.13,0,0,0-.13.13v.37a.13.13,0,0,0,.13.13H7a0,0,0,0,1,0,0v1a0,0,0,0,1,0,0H7a.13.13,0,0,0-.13.13v.37A.13.13,0,0,0,7,24H9.09a.41.41,0,0,0,.41-.41V22a.37.37,0,0,0-.37-.37m-.33.7v.94a.07.07,0,0,1-.07.07H7.79a0,0,0,0,1,0,0v-1a0,0,0,0,1,0,0h.94a.07.07,0,0,1,.07.07"/><path class="cls-1" d="M27.54,21.74s0,0,0,0V22s0,0,0,0h0a0,0,0,0,1,0,0v-.27a0,0,0,0,0,0,0h-.06a0,0,0,0,1,0,0v0s0,0,0,0h.25a0,0,0,0,1,0,0v0s0,0,0,0Z"/><path class="cls-1" d="M27.76,21.86h0V22s0,0,0,0h0s0,0,0,0v-.34a0,0,0,0,1,0,0h0l0,0,.08.21h0l.07-.21,0,0H28s0,0,0,0l0,.34a0,0,0,0,1,0,0h0s0,0,0,0v-.17h0l-.05.12,0,0h0l0,0Z"/></g></g></g></svg>