<svg xmlns="http://www.w3.org/2000/svg" fill="none" viewBox="0 0 220 15" height="15" width="220">
<g clip-path="url(#clip0_3679_1216)">
<path fill="black" d="M0 0.118386V15C1.20783 14.942 2.41599 14.886 3.62446 14.8319V3.86839C7.56292 3.95912 11.5018 4.04475 15.4413 4.1253V14.3257C16.7071 14.2735 17.9738 14.2235 19.2412 14.1758V4.20218C22.2829 4.26203 25.3256 4.31822 28.3693 4.37074C29.1471 4.9651 29.9244 5.55198 30.7013 6.13138V13.7627C31.9126 13.7226 33.1224 13.6834 34.3305 13.6452V5.28854C32.7593 3.99859 31.1885 2.67521 29.6183 1.31841C19.7436 0.982228 9.87084 0.581904 0 0.117432"></path>
<path fill="black" d="M151.956 10.5632C148.083 7.71664 144.207 4.99857 140.334 2.3612C138.646 2.38667 136.958 2.41007 135.271 2.4314C140.204 5.78457 145.135 9.24901 150.066 12.9202C151.362 12.946 152.658 12.9721 153.954 12.9985C158.957 9.47536 163.962 5.75879 168.965 1.74854C167.169 1.79661 165.374 1.84436 163.578 1.89179C159.705 4.93028 155.832 7.80593 151.959 10.5651"></path>
<path fill="black" d="M117.742 8.67718C119.688 7.38437 121.634 6.08231 123.581 4.77103C125.525 6.06863 127.471 7.3772 129.418 8.69676C125.525 8.68817 121.634 8.68164 117.742 8.67718ZM121.581 2.56821C116.577 5.92903 111.573 9.2058 106.566 12.5007C108.363 12.5007 110.159 12.5028 111.955 12.5069C112.917 11.8737 113.879 11.238 114.839 10.5997C120.656 10.6134 126.475 10.6403 132.295 10.6804C133.264 11.3489 134.233 12.007 135.202 12.686C136.89 12.707 138.577 12.7301 140.264 12.7552C135.334 9.21822 130.401 5.84594 125.47 2.54004C124.174 2.5515 122.877 2.56137 121.58 2.56964"></path>
<path fill="black" d="M173.052 13.4842C174.261 13.5224 175.47 13.5573 176.678 13.596V1.52271C175.47 1.56027 174.261 1.59704 173.052 1.63301V13.4842Z"></path>
<path fill="black" d="M99.0051 10.0856C92.2124 10.0961 85.4187 10.1224 78.624 10.1644V4.96701C85.4183 5.00872 92.2121 5.03514 99.0051 5.04628C99.9296 5.59002 100.854 6.13201 101.778 6.67225V8.45008C100.854 8.99382 99.9296 9.53867 99.0051 10.0856ZM75.3232 2.40796V12.712C83.6337 12.5993 91.9441 12.5308 100.255 12.5066C101.826 11.4647 103.398 10.4242 104.97 9.38507V5.73344C103.399 4.69466 101.827 3.65398 100.255 2.61138C91.9441 2.59005 83.6337 2.52225 75.3232 2.40796Z"></path>
<path fill="black" d="M206.61 11.2158C199.82 11.0618 193.031 10.9233 186.241 10.8004V4.33424C193.031 4.21295 199.82 4.07526 206.61 3.92118C207.535 4.68522 208.459 5.46518 209.384 6.26105V8.86786C208.46 9.6615 207.536 10.4485 206.61 11.2178M207.86 0.337358C199.555 0.710782 191.249 1.03852 182.941 1.32058V13.7988C191.25 14.0808 199.556 14.4086 207.86 14.782C209.43 13.3356 211.207 11.8447 212.779 10.3076V4.8089C211.209 3.27223 209.432 1.78283 207.86 0.335449"></path>
<path fill="black" d="M39.5918 5.36863V9.74706C41.1634 10.9752 42.7344 12.1759 44.305 13.349C52.6132 13.1214 60.9232 12.9391 69.2349 12.8023V10.2332C61.3398 10.2994 53.4465 10.3866 45.5549 10.4949C44.6297 9.87408 43.7054 9.23085 42.7816 8.59431V6.52759C43.7054 5.89487 44.6297 5.25546 45.5549 4.63898C53.4471 4.74531 61.3405 4.83221 69.2349 4.8997V2.3163C60.9238 2.17973 52.6139 1.99747 44.305 1.76953C42.7341 2.94297 41.163 4.14267 39.5918 5.36863Z"></path>
<path fill="black" d="M217.941 1.33369H217.553V2.02611H217.941C217.989 2.02965 218.037 2.02332 218.082 2.00753C218.127 1.99173 218.169 1.96681 218.204 1.93431C218.239 1.90182 218.267 1.86245 218.286 1.81868C218.305 1.7749 218.315 1.72766 218.315 1.6799C218.315 1.63214 218.305 1.5849 218.286 1.54112C218.267 1.49735 218.239 1.45798 218.204 1.42548C218.169 1.39299 218.127 1.36807 218.082 1.35227C218.037 1.33648 217.989 1.33015 217.941 1.33369ZM218.317 3.27101L217.848 2.36037H217.553V3.27101H217.13V0.975551H217.994C218.09 0.971835 218.185 0.987308 218.274 1.02105C218.363 1.05479 218.445 1.10611 218.514 1.17196C218.583 1.23781 218.638 1.31683 218.676 1.40434C218.713 1.49185 218.733 1.58605 218.734 1.68133C218.736 1.81975 218.693 1.95507 218.611 2.067C218.529 2.17893 218.414 2.26143 218.281 2.30211L218.792 3.27101H218.317ZM217.873 0.392016C217.528 0.384901 217.189 0.48044 216.9 0.666449C216.61 0.852459 216.382 1.12051 216.245 1.43641C216.108 1.75231 216.069 2.10174 216.131 2.44015C216.194 2.77855 216.357 3.09058 216.598 3.33645C216.839 3.58231 217.148 3.75087 217.486 3.82062C217.823 3.89036 218.174 3.85814 218.493 3.72806C218.812 3.59798 219.085 3.37594 219.277 3.09025C219.469 2.80456 219.572 2.46817 219.572 2.124C219.576 1.89846 219.535 1.6744 219.451 1.46483C219.368 1.25527 219.243 1.06437 219.085 0.903233C218.927 0.742094 218.738 0.613923 218.53 0.526163C218.322 0.438404 218.099 0.392806 217.873 0.392016ZM217.873 4.24946C217.452 4.24936 217.041 4.12463 216.691 3.89102C216.341 3.65742 216.068 3.32543 215.907 2.93705C215.746 2.54866 215.704 2.12131 215.786 1.70905C215.868 1.29678 216.071 0.918103 216.369 0.6209C216.666 0.323697 217.046 0.121314 217.458 0.0393414C217.871 -0.0426313 218.299 -0.000512312 218.688 0.160373C219.077 0.321258 219.409 0.593683 219.643 0.943203C219.877 1.29272 220.002 1.70364 220.002 2.124C220.002 2.40319 219.947 2.67967 219.84 2.93763C219.733 3.19559 219.576 3.42998 219.378 3.62737C219.181 3.82477 218.946 3.98132 218.688 4.08806C218.429 4.1948 218.152 4.24965 217.873 4.24946Z"></path>
</g>
<defs>
<clipPath id="clip0_3679_1216">
<rect fill="white" height="15" width="220"></rect>
</clipPath>
</defs>
</svg>
